<svg width="113" height="66" viewBox="0 0 113 66" fill="none" xmlns="http://www.w3.org/2000/svg">
<path d="M10.8379 30.02L18.4579 8.96L26.6179 30.02H10.8379ZM39.9379 43.34C38.1979 43.22 36.9979 42.98 35.0779 38.18C35.0779 38.18 24.1579 10.58 20.4979 1.76H20.0779L10.1779 29.06C5.31789 42.68 3.81789 43.34 1.17789 43.34V44H13.8979V43.34C6.09789 43.46 8.13789 37.88 10.6579 30.68H26.8579L29.0179 36.38C31.1779 41.42 30.5179 43.34 27.9979 43.34V44H39.9379V43.34ZM74.1852 31.64C73.8252 42.08 65.2452 43.88 61.5852 43.88C55.7052 43.88 46.8852 42.26 46.8852 22.88C46.8852 3.92 55.5252 1.88 61.5852 1.88C65.4252 1.88 73.3452 3.26 74.1852 14.06H74.8452L75.4452 4.88C71.6652 1.82 67.7652 1.22 61.5852 1.22C49.3452 1.22 40.7652 8.6 40.7652 22.88C40.7652 36.92 49.3452 44.54 61.5852 44.54C68.0052 44.54 71.0052 43.76 75.4452 40.82L74.8452 31.64H74.1852ZM107.495 31.82C106.895 43.76 98.9146 43.34 90.8746 43.34H87.8146V23H92.6146C94.8946 23 100.055 23.06 100.235 29H100.895V16.4H100.235C100.055 22.28 95.0146 22.34 92.6146 22.34H87.8146V2.42H91.6546C98.9746 2.42 106.415 2.54 106.715 12.26H107.375V1.76H79.8346V2.42C82.4746 2.42 82.8946 3.5 82.8946 7.22V37.58C82.8946 41.66 82.3546 43.34 79.8346 43.34V44H108.155V31.82H107.495Z" fill="#3A3A3A"/>
<path d="M5.04688 58.272L7.07888 52.656L9.25488 58.272H5.04688ZM12.8069 61.824C12.3429 61.792 12.0229 61.728 11.5109 60.448C11.5109 60.448 8.59888 53.088 7.62288 50.736H7.51088L4.87088 58.016C3.57488 61.648 3.17488 61.824 2.47088 61.824V62H5.86288V61.824C3.78288 61.856 4.32688 60.368 4.99888 58.448H9.31888L9.89488 59.968C10.4709 61.312 10.2949 61.824 9.62288 61.824V62H12.8069V61.824ZM28.4835 57.52V57.696C29.6195 57.696 29.7315 57.728 29.7315 60.256C29.7315 61.488 28.7075 61.968 26.8355 61.968C25.0435 61.968 23.3315 60.768 23.3315 56.368C23.3315 51.968 25.0115 50.768 26.8355 50.768C28.7235 50.768 30.3395 51.296 30.4515 54.048H30.7075L30.8515 51.536C29.8595 50.88 28.8835 50.592 26.8355 50.592C23.3795 50.592 21.7155 53.184 21.7155 56.368C21.7155 59.552 23.3795 62.144 26.8355 62.144C28.5475 62.144 29.8435 61.856 30.8355 61.472C30.8355 57.776 30.9155 57.696 31.8755 57.696V57.52H28.4835ZM48.8714 58.752C48.7114 61.936 46.5834 61.824 44.4394 61.824H43.6234V56.4H44.9034C45.5114 56.4 46.8874 56.416 46.9354 58H47.1114V54.64H46.9354C46.8874 56.208 45.5434 56.224 44.9034 56.224H43.6234V50.912H44.6474C46.5994 50.912 48.5834 50.944 48.6634 53.536H48.8394V50.736H41.4954V50.912C42.1994 50.912 42.3114 51.2 42.3114 52.192V60.288C42.3114 61.376 42.1674 61.824 41.4954 61.824V62H49.0474V58.752H48.8714ZM66.6174 50.736V50.896C68.6654 50.896 68.6654 52.448 68.6654 54.672V60.144L61.5134 50.736H59.0334V50.896C59.4494 50.928 59.9134 50.864 60.9374 52.144L61.6094 53.024V58.032C61.6094 60.192 61.5934 61.824 59.3374 61.824V62H63.8494V61.824C61.7854 61.824 61.7854 60.16 61.7854 58.032V53.232L68.5054 62H68.8414V54.672C68.8414 52.448 68.7934 50.896 71.0494 50.896V50.736H66.6174ZM89.5851 58.704C89.4891 61.488 87.2011 61.968 86.2251 61.968C84.6571 61.968 82.3051 61.536 82.3051 56.368C82.3051 51.312 84.6091 50.768 86.2251 50.768C87.2491 50.768 89.3611 51.136 89.5851 54.016H89.7611L89.9211 51.568C88.9131 50.752 87.8731 50.592 86.2251 50.592C82.9611 50.592 80.6731 52.56 80.6731 56.368C80.6731 60.112 82.9611 62.144 86.2251 62.144C87.9371 62.144 88.7371 61.936 89.9211 61.152L89.7611 58.704H89.5851ZM105.764 50.736V50.912C107.86 50.912 107.22 52.544 106.404 54.192L105.108 56.832L102.708 52.704C101.62 50.864 102.58 50.896 103.076 50.896V50.736H99.4756V50.896C100.052 50.944 100.404 50.912 101.124 52.144C101.124 52.144 101.732 53.136 104.084 57.296V60.272C104.084 61.68 103.636 61.824 102.964 61.824V62H106.308V61.824C105.636 61.824 105.156 61.68 105.156 60.272V57.088L106.484 54.416C108.244 50.896 108.708 50.912 109.54 50.912V50.736H105.764Z" fill="#3A3A3A"/>
</svg>
