<svg width="25" height="25" viewBox="0 0 25 25" fill="none" xmlns="http://www.w3.org/2000/svg">
<g clip-path="url(#clip0)">
<path d="M21.0938 12.5H8.98438V7.46587C8.98438 5.53227 10.5322 3.92583 12.4658 3.9063C14.4189 3.88677 16.0156 5.47368 16.0156 7.42192V8.20317C16.0156 8.85259 16.5381 9.37505 17.1875 9.37505H18.75C19.3994 9.37505 19.9219 8.85259 19.9219 8.20317V7.42192C19.9219 3.32036 16.5771 -0.0146004 12.4756 4.80722e-05C8.37402 0.0146965 5.07812 3.3936 5.07812 7.49517V12.5H3.90625C2.6123 12.5 1.5625 13.5499 1.5625 14.8438V22.6563C1.5625 23.9502 2.6123 25 3.90625 25H21.0938C22.3877 25 23.4375 23.9502 23.4375 22.6563V14.8438C23.4375 13.5499 22.3877 12.5 21.0938 12.5ZM14.4531 19.9219C14.4531 21.001 13.5791 21.875 12.5 21.875C11.4209 21.875 10.5469 21.001 10.5469 19.9219V17.5782C10.5469 16.4991 11.4209 15.625 12.5 15.625C13.5791 15.625 14.4531 16.4991 14.4531 17.5782V19.9219Z" fill="white"/>
</g>
<defs>
<clipPath id="clip0">
<rect width="25" height="25" fill="white"/>
</clipPath>
</defs>
</svg>
