<svg xmlns="http://www.w3.org/2000/svg" xmlns:xlink="http://www.w3.org/1999/xlink" viewBox="0 0 710.39 66.41"><defs><style>.cls-1{fill:url(#Gradient_bez_nazwy_4);}</style><linearGradient id="Gradient_bez_nazwy_4" y1="33.2" x2="710.39" y2="33.2" gradientUnits="userSpaceOnUse"><stop offset="0.03" stop-color="#16b2e8"/><stop offset="0.35" stop-color="#3d99d5"/><stop offset="0.77" stop-color="#2b3180"/><stop offset="0.97" stop-color="#2b3180"/></linearGradient></defs><g id="Warstwa_2" data-name="Warstwa 2"><g id="Warstwa_1-2" data-name="Warstwa 1"><path class="cls-1" d="M510.51,65h-24V1.37h24Zm-20.2-3.75h16.44V5.12H490.31ZM563.45,65h-24V20.79H522V1.37h59V20.79H563.45Zm-20.2-3.75h16.44V17h17.55V5.12H525.7V17h17.55ZM710.39,65H666.15V1.37h24V45.62h20.29ZM669.9,61.29h36.74V49.38H686.35V5.12H669.9ZM657.67,65h-25l-4-10.44H608.41l-4,10.44h-24.7L607.52,1.37h22.31ZM635.2,61.29h16.73L627.38,5.12H610L585.43,61.29h16.38l4-10.45h25.35Zm-8.14-21.24H610l8.56-22.15Zm-11.64-3.76h6.17l-3.08-8ZM398.54,65.13h-24V1.46h24Zm-20.2-3.75h16.45V5.22H378.34ZM327.57,1.46h-7.45v.31h0V18.29h0V21h6.59c7.78,0,12.42,4.61,12.42,12.33s-4.64,12.33-12.42,12.33h-6.59V27.18h-20.2V22.74H314V8.55h0V4.8H299.92v0h-3.76V19H282.39V30.93h13.77v34.2h31.41c21.68,0,35.69-12.49,35.69-31.83S349.25,1.46,327.57,1.46ZM299.92,8.55h10.3V19h-10.3ZM286.15,27.18V22.74h10v4.44Zm41.42,34.2H299.92V30.93h16.45V49.39h10.34c9.83,0,16.18-6.32,16.18-16.09s-6.35-16.08-16.18-16.08h-2.83v-12h3.69c19.4,0,31.93,11,31.93,28.08S347,61.38,327.57,61.38ZM98.26,11.31H84v-10h40.3v10H110.12V65.13H98.26Zm45.39,0H129.43v-10h40.29v10H155.51V65.13H143.65Zm68.48,53.82-13-18.7a22.48,22.48,0,0,1-2.46.09h-4.27V65.13H180.49V1.28h16.13c16.79,0,27.19,8.57,27.19,22.71,0,9.67-4.93,16.79-13.6,20.16l14.69,21ZM196.07,11.31h-3.72V36.76h3.72c10.4,0,15.79-4.74,15.79-12.77S206.47,11.31,196.07,11.31ZM74.14,55.19H53.93V37.58H70.37V27.82H53.93V11.22H74.14V1.28H42.07V65.13H74.14Zm193.59,0h-20.2V37.58H264V27.82H247.53V11.22h20.2V1.28H235.67V65.13h32.06Zm-236-.09H11.86V1.28H0V65.13H31.75ZM446.26,28.84h-1.33V40.79h7.18v4.64a17,17,0,0,1-5.49.88c-7.54,0-12.41-5.15-12.41-13.11,0-8.2,4.73-13.1,12.67-13.1h1.55l.12,0h.07l.12,0h.16l.14,0,.38.05.19,0h0l.14,0h.07l.15,0h0a14.27,14.27,0,0,1,2.31.69,14.5,14.5,0,0,1,3.29,1.84l2.17-3.06L465.45,9l2.17-3.07A30.85,30.85,0,0,0,464.35,4a36.41,36.41,0,0,0-8.62-3L455.44,1l-.29-.06c-.49-.1-1-.19-1.48-.27s-1-.16-1.5-.22l-.28,0h-.05l-.28,0-.62-.07-.3,0h0l-.62,0-.31,0-.25,0h-.38l-.32,0h-.4l-.5,0h-2C435.8,0,426.7,3.29,420.22,9.26A32,32,0,0,0,410.08,33.2c0,19.24,14.86,33.21,35.34,33.21,9.72,0,19.88-3,27.17-7.95l.82-.55V28.84ZM469.65,55.9a47.18,47.18,0,0,1-24.23,6.75c-18.6,0-31.59-12.11-31.59-29.45S427,3.75,445.85,3.75h1.64l.37,0h.2l.3,0h.25l.27,0,.53,0,.8.07.27,0,.26,0L451,4l.27,0,.27,0,.25,0,.51.08.26,0,.51.08.25,0,.25,0,.24,0h0l.48.09a33.84,33.84,0,0,1,7.84,2.56L454.51,18A16.66,16.66,0,0,0,451,16.79l-.5-.11-.76-.12-.26,0-.23,0-.16,0-.2,0h-.14l-.13,0h-.19l-.23,0h-1.53c-9.87.08-16.24,6.68-16.24,16.85s6.5,16.86,16.17,16.86a20.65,20.65,0,0,0,8.08-1.6l1.16-.48V37h-7.17V32.6h21Z"/></g></g></svg>