<svg xmlns="http://www.w3.org/2000/svg" viewBox="0 0 758.33 191.95"><defs><style>.cls-1{fill:#31ddcb;}.cls-2{fill:#5d1fad;}</style></defs><g id="Warstwa_2" data-name="Warstwa 2"><g id="Warstwa_1-2" data-name="Warstwa 1"><path d="M17.75,122.71h5.06v14.58h8v4.37h-8v34.91H17.75V141.66H10.86v-4.37h6.89Z"/><path d="M109,163.54l4.26,2.24a23.41,23.41,0,0,1-4.84,6.64,19.24,19.24,0,0,1-6.18,3.84,21.53,21.53,0,0,1-7.77,1.32q-9.61,0-15-6.3a21.51,21.51,0,0,1-.83-27.56,18.75,18.75,0,0,1,15.57-7.44,19.37,19.37,0,0,1,16,7.62,21.3,21.3,0,0,1,4.34,13.43H79.24a16,16,0,0,0,4.37,11.22,13.93,13.93,0,0,0,10.44,4.37,16.69,16.69,0,0,0,5.84-1,15.36,15.36,0,0,0,4.83-2.77A23.71,23.71,0,0,0,109,163.54ZM109,153a16.84,16.84,0,0,0-3-6.46,14,14,0,0,0-5.11-3.9,15.62,15.62,0,0,0-6.69-1.48,14.41,14.41,0,0,0-9.94,3.72A16.83,16.83,0,0,0,79.74,153Z"/><path d="M199.67,145.45l-4,2.49a16.79,16.79,0,0,0-14.17-6.89,16.45,16.45,0,0,0-11.92,4.61,15.08,15.08,0,0,0-4.74,11.22A16,16,0,0,0,167,165a15.29,15.29,0,0,0,6,5.87,18.11,18.11,0,0,0,22.66-4.8l4,2.64a18.93,18.93,0,0,1-7.56,6.57,24.17,24.17,0,0,1-10.82,2.34,21.37,21.37,0,0,1-15.45-5.92,19.26,19.26,0,0,1-6.13-14.4,20.5,20.5,0,0,1,2.87-10.6,20.21,20.21,0,0,1,7.88-7.63,23,23,0,0,1,11.23-2.75,24.11,24.11,0,0,1,7.53,1.19,20.86,20.86,0,0,1,6.15,3.11A16.92,16.92,0,0,1,199.67,145.45Z"/><path d="M246.93,122.13h5v22.2a21.55,21.55,0,0,1,6.75-6,16.42,16.42,0,0,1,8-2,13.91,13.91,0,0,1,7.81,2.24,13.32,13.32,0,0,1,5,6q1.62,3.78,1.63,11.83v20.21h-5.06V157.84a48.14,48.14,0,0,0-.54-9.07,10.29,10.29,0,0,0-3.41-5.86,10.11,10.11,0,0,0-6.48-2,12.44,12.44,0,0,0-8.21,3,14.22,14.22,0,0,0-4.79,7.51q-.72,2.9-.72,10.69v14.4h-5Z"/><path d="M329.56,137.29h5.06v7a21.12,21.12,0,0,1,6.71-6,16.49,16.49,0,0,1,8-2,13.93,13.93,0,0,1,7.81,2.24,13.26,13.26,0,0,1,5,6q1.62,3.8,1.62,11.81v20.21h-5.05V157.84a46.73,46.73,0,0,0-.56-9.07,10,10,0,0,0-3.37-5.86,10.19,10.19,0,0,0-6.5-2,12.48,12.48,0,0,0-8.22,3,14.21,14.21,0,0,0-4.78,7.51q-.72,2.93-.72,10.69v14.4h-5.06Z"/><path d="M430.79,136.28a19.43,19.43,0,0,1,15,6.57,21.09,21.09,0,0,1-.3,28.58,20.77,20.77,0,0,1-29.51,0,21.06,21.06,0,0,1-.31-28.54A19.47,19.47,0,0,1,430.79,136.28Zm0,4.95a14.57,14.57,0,0,0-10.83,4.66,15.54,15.54,0,0,0-4.53,11.26,15.92,15.92,0,0,0,2.07,7.94,14.54,14.54,0,0,0,5.58,5.69,15.88,15.88,0,0,0,15.43,0,14.68,14.68,0,0,0,5.58-5.69,15.91,15.91,0,0,0,2.06-7.94,15.51,15.51,0,0,0-4.54-11.26A14.59,14.59,0,0,0,430.77,141.23Z"/><path d="M497.4,122.13h5.05v54.44H497.4Z"/><path d="M569.1,136.28a19.45,19.45,0,0,1,15,6.57,21.08,21.08,0,0,1-.31,28.58,20.77,20.77,0,0,1-29.51,0,21,21,0,0,1-.3-28.54A19.46,19.46,0,0,1,569.1,136.28Zm0,4.95a14.57,14.57,0,0,0-10.83,4.66,15.54,15.54,0,0,0-4.53,11.26,15.92,15.92,0,0,0,2.07,7.94,14.59,14.59,0,0,0,5.57,5.69,15.9,15.9,0,0,0,15.44,0,14.59,14.59,0,0,0,5.57-5.69,15.92,15.92,0,0,0,2.07-7.94,15.52,15.52,0,0,0-4.55-11.26A14.57,14.57,0,0,0,569.08,141.23Z"/><path d="M670.32,137.29h5.06v31.3q0,8.26-1.44,12.1A15.72,15.72,0,0,1,667,189a22.65,22.65,0,0,1-11.8,2.93,27.08,27.08,0,0,1-9.08-1.43,18.07,18.07,0,0,1-6.56-3.84,22.84,22.84,0,0,1-4.65-7h5.48a14.62,14.62,0,0,0,5.79,5.78,18.61,18.61,0,0,0,8.78,1.87,18.17,18.17,0,0,0,8.73-1.92,11.88,11.88,0,0,0,5.08-4.84q1.52-2.91,1.51-9.41v-2a19.17,19.17,0,0,1-7,5.54,20.7,20.7,0,0,1-18.93-.76,19.1,19.1,0,0,1-7.38-7.24,19.81,19.81,0,0,1-2.6-10,20.46,20.46,0,0,1,20.31-20.36,18.74,18.74,0,0,1,8.22,1.83,22.62,22.62,0,0,1,7.35,6Zm-14.9,3.87a16,16,0,0,0-8,2.07,15.1,15.1,0,0,0-5.78,5.74,15.8,15.8,0,0,0-2.09,7.93,14.26,14.26,0,0,0,4.33,10.68,15.4,15.4,0,0,0,11.23,4.23q7,0,11.21-4.19a14.81,14.81,0,0,0,4.24-11,16,16,0,0,0-2-7.93,14.24,14.24,0,0,0-5.52-5.5A15.37,15.37,0,0,0,655.42,141.16Z"/><path d="M719.53,137.29h5.34l13.5,30.25,13.11-30.25h5.38l-23.43,53.65h-5.34l7.56-17.34Z"/><path class="cls-1" d="M363.61,98.62c5.25-5.77,4.4-16.41-2.6-32.46a6.17,6.17,0,1,0-5.47,1.76c6,13.55,7.34,23,3.84,26.85-2.9,3.2-10.17,4.08-19.45,2.36l-1.31-.25c-.55-.11-1.1-.24-1.66-.37l-1.18-.28c-.63-.16-1.25-.32-1.88-.5-.38-.1-.75-.2-1.13-.32s-1-.28-1.45-.44c-1.5-.46-3-1-4.54-1.56l-.76-.28-1.47-.58c-.89-.36-1.78-.74-2.67-1.13l-1.15-.51c-1-.46-2.06-1-3.08-1.47l-.92-.45-.25-.13c-.68-.35-1.35-.7-2-1.07-.46-.24-.91-.49-1.36-.75-1.44-.8-2.87-1.64-4.27-2.52l-1.08-.69q-1.58-1-3.09-2.07l-1.1-.78c-.64-.45-1.26-.92-1.89-1.38l-.86-.66-1-.8c-.34-.27-.68-.54-1-.82l-1.19-1-.8-.69c-.32-.27-.63-.55-1-.84l-1.14-1-.77-.73c-1-1-2-1.92-2.92-2.91l-.68-.73c-.28-.31-.57-.62-.85-.94s-.49-.55-.73-.82c-.18.38-.36.78-.52,1.17l-.17.4c-.64,1.58-1.2,3-1.67,4.44h0l.26.27.91,1,.45.45c.45.46.91.92,1.37,1.37l1.2,1.13c.2.2.42.39.62.58.45.41.89.81,1.34,1.2s1,.91,1.58,1.36c0,0,0,0,.05.05l1.48,1.21.33.27,1.56,1.22c.57.44,1.15.87,1.73,1.3l1.26.91.64.44c.4.29.8.56,1.21.84-1.13.65-2.25,1.26-3.35,1.81A37.19,37.19,0,0,1,287.64,93c-2.54.34-4.46,0-5.55-.84-2.52-2-2.26-8.92.44-17.66.38-1.21.8-2.46,1.27-3.74.34-.92.69-1.86,1.08-2.8l.18-.44a29.87,29.87,0,0,1,1.31-2.75c.56-1.06,1.18-2.12,1.87-3.17,4.37-6.72,11.07-13.26,17.54-18.13,1-.76,2-1.48,3-2.16.52.33,1,.67,1.55,1s1,.67,1.48,1l0,0,1.19.86,1.08.82.08.06,1.12.9c.38.3.74.61,1.1.91l.31.27.53.46c.23.2.46.4.68.61s.23.21.34.32l.84.78c-.44,1-.94,2.16-1.49,3.35a2.14,2.14,0,0,1-.1.22A47.9,47.9,0,0,1,313.45,60l4.69,3.27a53.89,53.89,0,0,0,3.67-6.1c.32-.62.63-1.25.92-1.88s.47-1,.68-1.5l.47.53.42.5c.53.63,1.05,1.27,1.55,1.91h0c.4.52.79,1,1.16,1.53.25.33.48.66.71,1l.12.17c1.16-1.62,2.27-3.33,3.32-5.11h0q-1.34-1.76-2.77-3.44c-.84-1-1.71-2-2.58-2.89.5-1.33.9-2.56,1.23-3.68,2.9-9.83.22-12.22-.83-13.15-1.69-1.5-4.16-1.9-7.33-1.18a30.31,30.31,0,0,0-6.75,2.67c2,1.2,3.86,2.44,5.6,3.68l1-.36c2.58-.86,3.53-.59,3.69-.53.25.39.42,1.73-.13,4.42a35.71,35.71,0,0,1-1,3.69l-.8-.7c-.61-.53-1.24-1-1.9-1.58l-.15-.11h0l-.61-.47-.54-.42c-.32-.24-.65-.49-1-.73l-.55-.41c-.52-.37-1.05-.75-1.6-1.11-.87-.6-1.77-1.18-2.68-1.75-.38-.25-.78-.48-1.18-.72l-1.61-.95-.06,0c-.55-.32-1.09-.62-1.64-.92l-1.67-.88-.07,0-1.69-.83-.85-.41L301,30.7l-.82-.35c-.57-.25-1.14-.48-1.71-.7s-1.23-.48-1.85-.7l-.72-.26-1.11-.37c.95-.9,1.92-1.78,2.89-2.64C310.15,14.65,324.12,7.32,333.4,6c4.05-.59,7.22-.09,9.16,1.42,3.83,3,4.66,11.36,2.21,22.32a92.5,92.5,0,0,1-9.51,24.4c-.62,1.11-1.26,2.19-1.92,3.26q-1.66,2.69-3.44,5.13l0,0c-.73,1-1.48,2-2.25,2.94-1.72,2.13-3.53,4.18-5.41,6.12-.9.93-1.82,1.84-2.74,2.73A33.81,33.81,0,0,1,316,72.83l-.78-.39-.66-.37-.7-.4-.46-.27-.43-.26a41.54,41.54,0,0,1-6.64-5.2l-.71-.69-.6-.6a56,56,0,0,1-5.38-6.5L295,61.44c.59.84,1.27,1.76,2,2.72l.59.73c.71.87,1.49,1.78,2.35,2.7l.47.51c.81.86,1.68,1.71,2.6,2.56.19.17.37.35.57.51l.57.51.44.37c.44.38.9.75,1.37,1.12.2.17.41.33.62.49l.75.55.55.4.67.46.57.39.11.07c.46.3.93.59,1.41.88l.72.42c.27.15.54.31.82.45l.78.42.05,0c.26.14.53.27.8.4l.91.43c-1,.82-2,1.62-3,2.38l-1,.77q2.63,1.65,5.33,3.1c.59-.46,1.17-.93,1.75-1.41,1.05-.87,2.1-1.76,3.12-2.68l.84.19.31.07.84.17.22,0,1,.16,1.05.14.14,0c4.29.5,10.16,1.19,13.16-2.74A7.79,7.79,0,0,0,340,74.34a1.94,1.94,0,0,0,0-.34,12.16,12.16,0,0,0-.12-2.06c0-.12,0-.25-.05-.38a19.56,19.56,0,0,0-.52-2.35c-.05-.17-.09-.33-.14-.49-.12-.37-.24-.75-.38-1.14s-.28-.77-.44-1.15l-.06-.16c-.1-.24-.2-.49-.31-.73l-.36-.8-.09-.2c-.13-.26-.26-.54-.4-.81a.61.61,0,0,0-.07-.14l-.39-.77h0q1.08-1.62,2.1-3.3c12.41-20.53,18.31-48,7.34-56.62A13.77,13.77,0,0,0,339,.14a24.6,24.6,0,0,0-6.42.16c-12.26,1.79-28.19,11.14-41.34,23.48-1,.95-2,1.91-3,2.89h0c-1.67,1.69-3.3,3.43-4.85,5.21-1.07,1.22-2.1,2.45-3.09,3.71h0c-.51.63-1,1.28-1.49,1.92s-1.06,1.42-1.56,2.14-1.08,1.54-1.59,2.32l-.12-.74c-.07-.48-.12-.93-.16-1.36,0-.21,0-.42,0-.62s0-.4,0-.59v-.38a2.26,2.26,0,0,1,0-.26c0-.13,0-.26,0-.38s0-.37.05-.53a8.28,8.28,0,0,1,.17-1h0a1.89,1.89,0,0,1,.09-.34c0-.16.09-.31.14-.45l.11-.27s0,0,0,0,.08-.17.11-.25a4,4,0,0,1,.2-.35c.05-.08.1-.17.16-.25l.13-.18.11-.12a.69.69,0,0,1,.11-.13,3.79,3.79,0,0,1,.74-.63l.31-.19c.13-.08.28-.15.42-.22Q281,29.37,284,26.18c-.36,0-.72,0-1.07,0s-.56,0-.83,0H282c-.27,0-.53,0-.79,0l-.39,0a2.85,2.85,0,0,0-.41,0l-.41,0-.64.1-.19,0-.6.12a11.83,11.83,0,0,0-1.5.43c-.13,0-.25.08-.37.12l-.14.06c-.13,0-.26.1-.39.15-.28.12-.54.25-.8.38a6.22,6.22,0,0,0-.56.32h0c-.2.12-.4.25-.59.39a5.17,5.17,0,0,0-.53.39.35.35,0,0,0-.09.07c-.14.11-.28.24-.42.36l-.11.1q-.24.22-.48.48c-2.51,2.71-3.19,6.37-2.91,10.24l0,.39c0,.28.05.56.09.85s0,.42.09.64a1.52,1.52,0,0,0,0,.21,2.36,2.36,0,0,0,0,.28c0,.11,0,.21.06.32s.06.36.09.55.07.36.11.53,0,.19.06.29v.05c.05.25.11.5.17.75a.06.06,0,0,0,0,0l.12.5c.1.4.21.81.32,1.21s.19.67.29,1l.3,1,.06.18q-1.14,2.07-2.16,4.21a97.27,97.27,0,0,0-5.93,15.68,6.18,6.18,0,1,0,5.46,1.75A91.49,91.49,0,0,1,272.5,60.1c.57-1.38,1.17-2.75,1.82-4.09.15.33.31.66.47,1,.31.66.64,1.32,1,2,.16.31.32.61.49.91l0,.06a0,0,0,0,1,0,0l.35.61c.15.26.29.52.45.78l.39.65.54.87c.35.57.72,1.15,1.11,1.71l.58.84-.15.37c-.43,1.06-.88,2.21-1.33,3.44-3.3,9.09-6.35,22,.24,27.35,2.37,1.92,5.7,2.62,9.88,2.07,4.79-.62,10.37-2.78,16.12-6q1.65-.93,3.3-2l-.06,0,.06,0c.57.34,1.13.67,1.7,1s1.13.64,1.71,1l.12.07,1.62.86c1.16.6,2.33,1.19,3.51,1.74.51.25,1,.49,1.54.72l.31.14,1.51.67.3.13,1.61.67,1.75.7h0l1.58.6.41.14,1.31.47.32.11,1.62.53c1.06.35,2.12.67,3.18,1h0l.87.23c.48.14,1,.26,1.45.38l1.31.32,1.43.32.38.07c.5.11,1,.21,1.51.3C350.46,104.89,359.24,103.43,363.61,98.62ZM333.26,69.15c.08.21.16.41.23.62s.16.48.24.71a14.21,14.21,0,0,1,.39,1.48c0,.1.05.21.06.31s0,.21.05.31a1.55,1.55,0,0,1,0,.29,2.6,2.6,0,0,1,0,.26.28.28,0,0,0,0,.09c0,.16,0,.32,0,.46a2.59,2.59,0,0,1-.43,1.61,1.87,1.87,0,0,1-.23.23,3,3,0,0,1-1.31.51,6.65,6.65,0,0,1-.7.09,2.19,2.19,0,0,1-.36,0l-.46,0h-.95c-1.33,0-2.75-.2-3.86-.33,1-1,2-2.09,3-3.15l1.36-1.56c.85-1,1.68-2,2.48-3C333,68.46,333.13,68.81,333.26,69.15Zm-50.64-9.78c-.17-.28-.35-.56-.51-.84s-.38-.63-.56-1-.5-.9-.74-1.35l-.05-.09c-.21-.4-.41-.8-.61-1.2l-.08-.16c-.19-.39-.38-.78-.56-1.17l-.07-.14c-.18-.41-.36-.81-.53-1.21s-.33-.81-.49-1.22c-.23-.57-.43-1.11-.62-1.64q1.11-1.93,2.34-3.78c.58-.9,1.18-1.79,1.8-2.66,1.75-2.47,3.63-4.85,5.6-7.13.86-1,1.74-2,2.63-2.92l.68.18.65.18,1.49.45.9.3.64.22.66.24c1.57.58,3.16,1.24,4.74,2,.61.28,1.21.57,1.82.87l.78.39.58.3.27.14c-1,.73-2,1.5-3,2.3a83.56,83.56,0,0,0-15.51,16c-.75,1-1.45,2.09-2.1,3.14Z"/><path class="cls-2" d="M432,38.75l-8.39,7.41q-4.42-6.15-9-6.15A5.45,5.45,0,0,0,411,41.2a3.47,3.47,0,0,0-1.42,2.69,4.61,4.61,0,0,0,1,2.84c.91,1.19,3.69,3.74,8.31,7.65q6.5,5.43,7.87,6.84a24,24,0,0,1,4.89,6.66,16.66,16.66,0,0,1,1.44,7A15.93,15.93,0,0,1,428,86.94q-5.07,4.77-13.21,4.77a19.72,19.72,0,0,1-11.09-3.11q-4.72-3.12-8.09-9.8l9.53-5.75q4.31,7.89,9.9,7.89a7.28,7.28,0,0,0,4.91-1.7,5.06,5.06,0,0,0,2-3.93,6.78,6.78,0,0,0-1.5-4,43,43,0,0,0-6.61-6.2q-9.74-7.93-12.58-12.25a15.55,15.55,0,0,1-2.83-8.6,14.06,14.06,0,0,1,4.72-10.63,16.36,16.36,0,0,1,11.65-4.44,18.36,18.36,0,0,1,8.5,2.07Q427.33,33.29,432,38.75Z"/><path class="cls-2" d="M502.78,41.12l-7.93,7.56q-8.09-8.55-18.2-8.55a19.93,19.93,0,0,0-20.23,20.22A21.24,21.24,0,0,0,459,70.93a18.52,18.52,0,0,0,7.32,7.26,21.3,21.3,0,0,0,10.52,2.63,21.68,21.68,0,0,0,9-1.84,32.41,32.41,0,0,0,9-6.71l7.69,8q-6.6,6.43-12.47,8.93a34.11,34.11,0,0,1-13.41,2.49q-13.89,0-22.73-8.8t-8.85-22.58a30.86,30.86,0,0,1,4-15.83,29.9,29.9,0,0,1,11.54-11.14,32.63,32.63,0,0,1,16.18-4.21,34.37,34.37,0,0,1,25.95,12Z"/><path class="cls-2" d="M516,30.65h11.25V90.22H516Z"/><path class="cls-2" d="M544.24,30.65h32.51v11.1H555.49V52.52h21.26V63.41H555.49V79.08h21.26V90.22H544.24Z"/><path class="cls-2" d="M591.51,30.65h10.87l25.49,39.2V30.65h11.34V90.22H628.3L602.84,51.14V90.22H591.51Z"/><path class="cls-2" d="M711.7,41.12l-7.93,7.56q-8.09-8.55-18.2-8.55a19.95,19.95,0,0,0-20.23,20.22,21.24,21.24,0,0,0,2.59,10.58,18.65,18.65,0,0,0,7.32,7.26,21.33,21.33,0,0,0,10.52,2.63,21.65,21.65,0,0,0,9-1.84,32.26,32.26,0,0,0,9-6.71l7.69,8q-6.6,6.43-12.47,8.93a34.06,34.06,0,0,1-13.4,2.49q-13.89,0-22.74-8.8T654,60.33a31,31,0,0,1,4-15.83,30,30,0,0,1,11.54-11.14,32.63,32.63,0,0,1,16.18-4.21,34.37,34.37,0,0,1,26,12Z"/><path class="cls-2" d="M725.81,30.65h32.52v11.1H737.07V52.52h21.26V63.41H737.07V79.08h21.26V90.22H725.81Z"/><path class="cls-2" d="M31.08,29.15A29.59,29.59,0,0,1,52.82,38.3a30.47,30.47,0,0,1,9.09,22.32,30.11,30.11,0,0,1-9,22.06,29.55,29.55,0,0,1-21.78,9q-13.41,0-22.28-9.27A30.75,30.75,0,0,1,0,60.41,30.92,30.92,0,0,1,15.5,33.34,30.57,30.57,0,0,1,31.08,29.15ZM31,40.25A18.68,18.68,0,0,0,17.05,46a20,20,0,0,0-5.63,14.62q0,9.87,7.09,15.63a19.49,19.49,0,0,0,12.65,4.49A18.44,18.44,0,0,0,44.9,74.91a19.84,19.84,0,0,0,5.68-14.38,19.91,19.91,0,0,0-5.72-14.39A18.64,18.64,0,0,0,31,40.25Z"/><path class="cls-2" d="M76.71,30.65h12q9.76,0,14.08,1.8a14.35,14.35,0,0,1,6.8,5.83,18,18,0,0,1,2.49,9.66,16.25,16.25,0,0,1-3.26,10.37A16.91,16.91,0,0,1,100,64.06Q96.71,65,88.05,65V90.22H76.71ZM88.05,53.93h3.6a19.32,19.32,0,0,0,5.91-.61,5.15,5.15,0,0,0,2.61-2,5.83,5.83,0,0,0,1-3.39,5.43,5.43,0,0,0-2.67-5c-1.29-.78-3.7-1.17-7.2-1.17h-3.2Z"/><path class="cls-2" d="M127.38,30.65H159.9v11.1H138.64V52.52H159.9V63.41H138.64V79.08H159.9V90.22H127.38Z"/><path class="cls-2" d="M174.65,30.65h10.88L211,69.85V30.65h11.34V90.22H211.44L186,51.14V90.22H174.65Z"/></g></g></svg>