<svg xmlns="http://www.w3.org/2000/svg" xmlns:xlink="http://www.w3.org/1999/xlink" viewBox="0 0 801.29 63.06"><defs><style>.cls-1{isolation:isolate;}.cls-2{mix-blend-mode:exclusion;fill:url(#Gradient_bez_nazwy_24);}</style><linearGradient id="Gradient_bez_nazwy_24" y1="31.53" x2="801.29" y2="31.53" gradientUnits="userSpaceOnUse"><stop offset="0.03" stop-color="#f80980"/><stop offset="0.54" stop-color="#9e3cc7"/><stop offset="1" stop-color="#6958f2"/></linearGradient></defs><g class="cls-1"><g id="Warstwa_2" data-name="Warstwa 2"><g id="Warstwa_2-2" data-name="Warstwa 2"><path class="cls-2" d="M446.75,0h-25.3V63.06h25.3c20.73,0,33.77-14.3,33.77-31.53S467.48,0,446.75,0Zm-.59,51.38H435.07V11.68h11.09c12.07,0,20,8.37,20,19.85S458.23,51.38,446.16,51.38Zm50.72,11.68H510.5V0H496.88Zm63.34-.26c11,0,20.79-4.87,26.13-12.83V26.38H564.06v9.55h10.3v8.89a19.19,19.19,0,0,1-14,6.09c-10.77,0-18.63-8.62-18.63-19.48s8.05-19.38,18.63-19.38a18.41,18.41,0,0,1,13.11,4.78l8.15-8.9A32.76,32.76,0,0,0,560.13.16c-18.72,0-32,14-32,31.27S541.5,62.8,560.22,62.8Zm45.58.26h13.63V0H605.8Zm49.55,0H669V11.68h21.41V0H633.94V11.68h21.41ZM786.8,0V51.39h14.49V63.06H773.18V0ZM706.86,47.11V45.38m53.22,17.68L732.64,0H719.2L691.76,63.06h13.92L711.79,48h28.33l6.14,15.07ZM716.52,36.32l9.4-23.18,9.44,23.18ZM47.57,63.06h50.7V51.38H61.19V36.11H95.06V24.53H61.19V11.68H96.91V0H47.57Zm87.67,0h13.62V11.68h21.41V0H113.83V11.68h21.41Zm68,0h13.63V11.68h21.41V0H181.79V11.68H203.2ZM279,0c-18.59,0-28.32,10.9-28.32,24.43a22.56,22.56,0,0,0,12,20L249.47,63.06h15.67l9.73-14.79a33.49,33.49,0,0,0,5.36.49h12.16v14.3H306V0Zm13.43,37.08H278.57c-8,0-13.53-5.74-13.53-12.65,0-7.2,5.55-12.85,13.43-12.85h13.92Zm36.75,26h50.7V51.38H342.77V36.11h33.86V24.53H342.77V11.68h35.71V0H329.14ZM13.61,0V51.39h14.5V63.06H0V0Z"/></g></g></g></svg>